<svg id="Capa_1" enable-background="new 0 0 512.753 512.753" height="512" viewBox="0 0 512.753 512.753" width="512" xmlns="http://www.w3.org/2000/svg"><g><path d="m23.83 419.707c-3.688-1.886-8.206-.424-10.092 3.264-8.692 17.001-13.286 36.069-13.286 55.141v26.949c0 4.142 3.357 7.5 7.5 7.5s7.5-3.358 7.5-7.5v-26.949c0-16.709 4.025-33.416 11.642-48.313 1.886-3.689.425-8.207-3.264-10.092z"/><path d="m478.064 297.861c-2.821-3.031-7.567-3.204-10.6-.381-3.032 2.822-3.203 7.567-.381 10.6 19.486 20.941 30.218 48.23 30.218 76.839 0 62.217-50.616 112.833-112.833 112.833s-112.834-50.617-112.834-112.833 50.617-112.833 112.834-112.833c21.081 0 41.646 5.856 59.472 16.936 3.519 2.187 8.143 1.108 10.329-2.411 2.187-3.518 1.107-8.142-2.411-10.329-20.205-12.559-43.508-19.197-67.39-19.197-54.524 0-101.175 34.315-119.514 82.48l-4.896-2.405c-4.258-2.093-9.288-1.987-13.453.283-.586.319-1.137.684-1.667 1.074v-26.902c18.508-14.445 31.774-34.802 37.43-57.729h.317c19.006 0 34.469-15.462 34.469-34.469 0-11.813-5.976-22.254-15.061-28.468l17.985-72.869c3.79-15.355.37-31.303-9.382-43.755-8.653-11.048-21.176-17.903-34.937-19.311-10.388-31.893-40.388-55.014-75.702-55.014h-24.003c-9.535 0-19.02 1.32-28.191 3.924-16.631 4.722-31.662 12.807-44.676 24.033-3.137 2.706-3.486 7.441-.781 10.578 2.706 3.137 7.441 3.485 10.578.781 11.349-9.788 24.462-16.841 38.977-20.961 7.837-2.227 15.944-3.355 24.093-3.355h24.003c35.625 0 64.607 28.983 64.607 64.607 0 3.497-.985 6.908-2.849 9.867l-2.879 4.57c-.56-.335-1.126-.662-1.7-.978l-22.254-12.251c-3.745-2.061-8.471-1.39-11.491 1.633l-15.973 15.972c-.339.339-.81.534-1.29.534h-71.586c-23.049 0-41.801 18.751-41.801 41.8v44.381c-.588.061-1.172.138-1.751.228l-10.77-43.638c-6.795-27.536-2.133-55.883 13.127-79.818 2.227-3.493 1.2-8.129-2.292-10.356-3.493-2.226-8.129-1.201-10.356 2.292-17.487 27.429-22.829 59.916-15.041 91.476l11.263 45.629c-9.085 6.213-15.062 16.655-15.062 28.468 0 18.803 15.136 34.127 33.861 34.453 5.617 23.037 18.921 43.521 37.505 58.037v25.35c-4.088-2.069-8.933-2.125-13.06-.097l-36.709 18.037c-4.343 2.133-7.27 6.196-8.001 10.833-15.304 6.292-28.926 15.466-40.49 27.278-2.897 2.959-2.848 7.708.112 10.606 1.46 1.429 3.354 2.141 5.246 2.141 1.946 0 3.892-.753 5.36-2.253 8.84-9.03 19.056-16.3 30.426-21.669l3.702 59.198c.205 3.279 2.521 6.042 5.713 6.819l15.668 3.812 12.083 54.904c.771 3.502 3.874 5.89 7.318 5.89.533 0 1.076-.057 1.619-.177 4.045-.89 6.603-4.892 5.712-8.937l-13.088-59.474c-.616-2.797-2.771-4.999-5.553-5.676l-14.847-3.612-4.147-66.327 36.028-17.703 18.183 155.085c.483 4.115 4.22 7.058 8.322 6.576 4.114-.482 7.059-4.208 6.576-8.323l-12.23-104.314c13.421 7.116 28.154 10.692 42.893 10.692 14.74 0 29.474-3.572 42.894-10.691l-12.23 104.313c-.482 4.114 2.462 7.84 6.576 8.322.297.035.591.052.883.052 3.751 0 6.991-2.81 7.439-6.627l18.182-155.084 6.506 3.197c-2.462 9.891-3.778 20.23-3.778 30.872 0 19.465 4.38 37.925 12.196 54.455-1.726 1.047-2.994 2.758-3.442 4.793l-13.09 59.474c-.891 4.045 1.667 8.047 5.712 8.937.543.12 1.085.177 1.619.177 3.444 0 6.547-2.387 7.317-5.889l11.228-51.01c22.953 34.281 62.03 56.898 106.294 56.898 70.487 0 127.833-57.346 127.833-127.833.001-32.416-12.158-63.334-34.236-87.06zm-193.132-59.116c.31-3.267.487-6.564.487-9.891v-28.691c9.442 1.336 16.734 9.449 16.734 19.254.001 9.974-7.542 18.209-17.221 19.328zm13.954-155.171c6.89 8.797 9.306 20.063 6.629 30.912l-17.493 70.877c-.857-.134-1.726-.227-2.603-.296v-44.313c0-14.039-5.41-27.287-14.727-37.228l3.815-6.056c3.374-5.355 5.157-11.532 5.157-17.862 0-2.98-.179-5.919-.5-8.815 7.742 1.904 14.668 6.328 19.722 12.781zm-221.928 135.843c0-9.509 6.857-17.434 15.884-19.124v28.859c0 3.179.161 6.331.446 9.456-9.245-1.508-16.33-9.527-16.33-19.191zm30.884 9.736v-88.399c0-14.778 12.022-26.8 26.801-26.8h71.586c4.495 0 8.721-1.75 11.896-4.928l13.137-13.136 18.74 10.317c12.594 6.933 20.417 20.17 20.417 34.546v88.101c0 37.989-24.055 72.047-59.857 84.749l-.74.262c-13.703 4.862-28.786 4.831-42.468-.087-35.596-12.793-59.512-46.801-59.512-84.625zm37.198 151.708-3.019-25.753.321-.131c3.635-1.483 5.983-4.978 5.983-8.903v-24.399c4.454 2.385 9.108 4.477 13.956 6.22 8.519 3.062 17.473 4.592 26.43 4.592 8.849 0 17.699-1.495 26.126-4.485l.74-.262c4.993-1.771 9.784-3.908 14.361-6.357v24.691c0 3.924 2.347 7.418 5.982 8.903l2.289.934-2.925 24.95c-26.981 19.584-63.265 19.582-90.244 0z"/><path d="m182.614 185.536h11.749c.021 18.523 15.096 33.585 33.623 33.585 18.54 0 33.624-15.083 33.624-33.624s-15.084-33.624-33.624-33.624c-13.167 0-24.584 7.612-30.1 18.663h-18.796c-5.515-11.051-16.933-18.663-30.1-18.663-18.54 0-33.624 15.083-33.624 33.624s15.084 33.624 33.624 33.624c18.528 0 33.603-15.063 33.624-33.585zm45.372-18.663c10.27 0 18.624 8.354 18.624 18.624s-8.354 18.624-18.624 18.624-18.624-8.354-18.624-18.624 8.354-18.624 18.624-18.624zm-97.62 18.624c0-10.27 8.354-18.624 18.624-18.624s18.624 8.354 18.624 18.624-8.354 18.624-18.624 18.624-18.624-8.354-18.624-18.624z"/><path d="m394.628 318.449-76.631 76.631c-15.523 15.524-15.523 40.784 0 56.309 7.521 7.521 17.52 11.662 28.154 11.662 10.636 0 20.635-4.141 28.155-11.662l76.631-76.631c15.523-15.524 15.523-40.784-.001-56.309-15.523-15.524-40.782-15.525-56.308 0zm-30.929 122.333c-4.687 4.687-10.919 7.268-17.548 7.268-6.628 0-12.86-2.581-17.547-7.268-9.676-9.676-9.676-25.42 0-35.096l33.012-33.012 35.095 35.095zm76.631-76.631-33.012 33.012-35.095-35.095 33.012-33.012c4.837-4.838 11.191-7.256 17.547-7.256 6.354 0 12.71 2.419 17.548 7.257 4.688 4.687 7.269 10.919 7.269 17.547s-2.581 12.86-7.269 17.547z"/></g></svg>