<svg id="Capa_1" enable-background="new 0 0 512 512" height="512" viewBox="0 0 512 512" width="512" xmlns="http://www.w3.org/2000/svg"><g><g><path d="m344.755 231.009c27.537 0 49.94-22.403 49.94-49.94s-22.403-49.94-49.94-49.94-49.94 22.403-49.94 49.94 22.403 49.94 49.94 49.94zm0-15c-16.692 0-30.679-11.768-34.121-27.44h68.242c-3.442 15.672-17.429 27.44-34.121 27.44zm0-69.881c16.692 0 30.679 11.768 34.121 27.44h-68.242c3.442-15.672 17.429-27.44 34.121-27.44z"/><path d="m117.305 181.068c0 27.537 22.403 49.94 49.94 49.94s49.94-22.403 49.94-49.94-22.403-49.94-49.94-49.94-49.94 22.403-49.94 49.94zm49.941 34.941c-16.691 0-30.679-11.768-34.121-27.44h68.242c-3.443 15.672-17.43 27.44-34.121 27.44zm34.121-42.441h-68.242c3.443-15.673 17.429-27.44 34.121-27.44s30.678 11.768 34.121 27.44z"/><path d="m344.755 346.978c27.537 0 49.94-22.403 49.94-49.94s-22.403-49.94-49.94-49.94-49.94 22.403-49.94 49.94 22.403 49.94 49.94 49.94zm0-15c-16.692 0-30.679-11.768-34.121-27.44h68.242c-3.442 15.672-17.429 27.44-34.121 27.44zm0-69.881c16.692 0 30.679 11.767 34.121 27.44h-68.242c3.442-15.672 17.429-27.44 34.121-27.44z"/><path d="m167.246 346.978c27.537 0 49.94-22.403 49.94-49.94s-22.403-49.94-49.94-49.94-49.94 22.403-49.94 49.94 22.403 49.94 49.94 49.94zm0-15c-16.691 0-30.679-11.768-34.121-27.44h68.242c-3.443 15.672-17.43 27.44-34.121 27.44zm-.001-69.881c16.691 0 30.679 11.767 34.121 27.44h-68.242c3.443-15.672 17.43-27.44 34.121-27.44z"/><path d="m344.755 462.818c27.537 0 49.94-22.403 49.94-49.94s-22.403-49.94-49.94-49.94-49.94 22.403-49.94 49.94 22.403 49.94 49.94 49.94zm0-15c-16.692 0-30.679-11.768-34.121-27.44h68.242c-3.442 15.672-17.429 27.44-34.121 27.44zm0-69.881c16.692 0 30.679 11.768 34.121 27.44h-68.242c3.442-15.672 17.429-27.44 34.121-27.44z"/><path d="m167.246 462.818c27.537 0 49.94-22.403 49.94-49.94s-22.403-49.94-49.94-49.94-49.94 22.403-49.94 49.94 22.403 49.94 49.94 49.94zm0-15c-16.691 0-30.679-11.768-34.121-27.44h68.242c-3.443 15.672-17.43 27.44-34.121 27.44zm-.001-69.881c16.691 0 30.679 11.768 34.121 27.44h-68.242c3.443-15.672 17.43-27.44 34.121-27.44z"/><path d="m248.5 146.305v288.61c0 4.142 3.358 7.5 7.5 7.5 4.143 0 7.5-3.358 7.5-7.5v-288.61c0-4.142-3.357-7.5-7.5-7.5-4.142 0-7.5 3.358-7.5 7.5z"/><path d="m374.548 0h-243.396c-33.173 0-60.161 26.988-60.161 60.161 0 4.142 3.358 7.5 7.5 7.5s7.5-3.358 7.5-7.5c0-24.902 20.259-45.161 45.161-45.161h243.396c28.376 0 51.461 23.085 51.461 51.461v340.854c0 4.142 3.357 7.5 7.5 7.5s7.5-3.358 7.5-7.5v-340.854c0-36.647-29.814-66.461-66.461-66.461z"/><path d="m433.509 434.815c-4.143 0-7.5 3.358-7.5 7.5v3.224c0 28.376-23.085 51.461-51.461 51.461h-237.096c-28.376 0-51.461-23.085-51.461-51.461v-350.378c0-4.142-3.358-7.5-7.5-7.5s-7.5 3.358-7.5 7.5v350.377c0 36.647 29.814 66.461 66.461 66.461h237.096c36.646 0 66.461-29.814 66.461-66.461v-3.224c0-4.141-3.357-7.499-7.5-7.499z"/></g><g><path d="m188.213 62.014c0-3.455 2.811-6.265 6.265-6.265s6.265 2.811 6.265 6.265c0 4.142 3.358 7.5 7.5 7.5s7.5-3.358 7.5-7.5c0-11.726-9.54-21.265-21.265-21.265s-21.265 9.54-21.265 21.265c0 4.142 3.358 7.5 7.5 7.5s7.5-3.358 7.5-7.5z"/><path d="m311.258 62.014c0-3.455 2.811-6.265 6.265-6.265s6.265 2.811 6.265 6.265c0 4.142 3.357 7.5 7.5 7.5s7.5-3.358 7.5-7.5c0-11.726-9.539-21.265-21.265-21.265s-21.265 9.54-21.265 21.265c0 4.142 3.357 7.5 7.5 7.5s7.5-3.358 7.5-7.5z"/><path d="m276.255 83.03c2.722-3.122 2.397-7.86-.726-10.582s-7.861-2.397-10.581.726c-2.261 2.593-5.521 4.08-8.948 4.08-3.426 0-6.688-1.487-8.947-4.08-2.723-3.123-7.459-3.447-10.582-.727-3.123 2.722-3.448 7.459-.727 10.582 5.109 5.862 12.492 9.224 20.255 9.224 7.764.001 15.147-3.36 20.256-9.223z"/></g></g></svg>